<svg width="40" height="40" viewBox="0 0 40 40" fill="none" xmlns="http://www.w3.org/2000/svg">
<path fill-rule="evenodd" clip-rule="evenodd" d="M10.8011 32.2294C11.6379 31.3926 11.6379 30.036 10.8011 29.1992C9.96424 28.3622 8.60747 28.3622 7.77064 29.1992L2.05635 34.9134C1.21951 35.7503 1.21951 37.1069 2.05635 37.9437C2.89319 38.7806 4.24996 38.7806 5.08682 37.9437L10.8011 32.2294ZM25.0867 30.6277C25.9235 31.4646 25.9235 32.8212 25.0867 33.658L20.801 37.9437C19.9641 38.7806 18.6073 38.7806 17.7705 37.9437C16.9337 37.1069 16.9337 35.7503 17.7705 34.9134L22.0562 30.6277C22.893 29.7909 24.2498 29.7909 25.0867 30.6277ZM23.7463 1.42906C23.2717 1.41993 22.8041 1.54376 22.3962 1.78654C21.9883 2.02932 21.6565 2.38137 21.4383 2.80288L21.4275 2.82369L18.189 9.33876L11.0053 10.4295C10.533 10.4944 10.0884 10.6907 9.72216 10.9962C9.35124 11.3057 9.07607 11.7143 8.92884 12.1744C8.78164 12.6344 8.76844 13.1269 8.89082 13.5942C9.01239 14.0584 9.26282 14.4787 9.61302 14.8066L14.6292 19.5737C14.6172 19.6216 14.6077 19.6701 14.6008 19.719L13.5676 26.9892C13.4808 27.4539 13.5252 27.9339 13.6963 28.3753C13.8741 28.8343 14.1813 29.2317 14.5806 29.5197C14.9799 29.8074 15.4541 29.9734 15.9458 29.9972C16.4256 30.0203 16.9019 29.9069 17.3197 29.6709L23.7069 26.2895L30.094 29.6709C30.5117 29.9069 30.988 30.0203 31.468 29.9972C31.9597 29.9734 32.4337 29.8074 32.8332 29.5197C33.2323 29.2317 33.5394 28.8343 33.7174 28.3753C33.8912 27.927 33.9343 27.4389 33.842 26.9675L32.6223 19.7262L37.8092 14.76L37.8383 14.7322C38.1663 14.3998 38.3963 13.9832 38.5034 13.5287C38.6106 13.0742 38.5909 12.5989 38.4457 12.155C38.3009 11.7111 38.0366 11.3156 37.6817 11.012C37.3269 10.7083 36.8954 10.5082 36.4343 10.4335L36.4132 10.4301L29.2243 9.37636L25.9916 2.87347C25.7894 2.45132 25.4745 2.09302 25.0816 1.83819C24.6834 1.5799 24.2208 1.43818 23.7463 1.42906ZM9.37239 22.2295C10.2092 21.3927 10.2092 20.0359 9.37239 19.1991C8.53556 18.3622 7.17876 18.3622 6.34193 19.1991L2.05622 23.4848C1.21938 24.3216 1.21938 25.6784 2.05622 26.5152C2.89305 27.3521 4.24985 27.3521 5.08667 26.5152L9.37239 22.2295Z" fill="#0CAEE4"/>
</svg>
