<svg width="14" height="14" viewBox="0 0 14 14" fill="none" xmlns="http://www.w3.org/2000/svg">
<path fill-rule="evenodd" clip-rule="evenodd" d="M4.75 3.75C4.75 2.50736 5.75736 1.5 7 1.5C8.24264 1.5 9.25 2.50736 9.25 3.75C9.25 4.99264 8.24264 6 7 6C5.75736 6 4.75 4.99264 4.75 3.75ZM13.5 5.75C13.5 4.7835 12.7165 4 11.75 4C10.7835 4 10 4.7835 10 5.75C10 6.7165 10.7835 7.5 11.75 7.5C12.7165 7.5 13.5 6.7165 13.5 5.75ZM2 12C2 12.1753 2.03008 12.3436 2.08535 12.5H0.5C0.223858 12.5 0 12.2761 0 12V10.75C0 9.50736 1.00736 8.5 2.25 8.5C2.38607 8.5 2.51932 8.51208 2.64873 8.53522C2.23579 9.26264 2 10.1038 2 11V12ZM11 12C11 12.2761 10.7761 12.5 10.5 12.5H3.5C3.22386 12.5 3 12.2761 3 12V11C3 8.79086 4.79086 7 7 7C9.20914 7 11 8.79086 11 11V12ZM0.5 5.75C0.5 4.7835 1.2835 4 2.25 4C3.2165 4 4 4.7835 4 5.75C4 6.7165 3.2165 7.5 2.25 7.5C1.2835 7.5 0.5 6.7165 0.5 5.75ZM12 12C12 12.1753 11.9699 12.3436 11.9146 12.5H13.5C13.7761 12.5 14 12.2761 14 12V10.75C14 9.50736 12.9926 8.5 11.75 8.5C11.6139 8.5 11.4807 8.51208 11.3513 8.53522C11.7642 9.26264 12 10.1038 12 11V12Z" fill="#F9FAFB"/>
</svg>
