<svg width="30" height="30" viewBox="0 0 30 30" fill="none" xmlns="http://www.w3.org/2000/svg">
<path fill-rule="evenodd" clip-rule="evenodd" d="M15 30C23.2843 30 30 23.2843 30 15C30 6.71574 23.2843 0 15 0C6.71574 0 0 6.71574 0 15C0 23.2843 6.71574 30 15 30ZM11.7857 20.0893C11.046 20.0893 10.4464 20.6889 10.4464 21.4286C10.4464 22.1683 11.046 22.7679 11.7857 22.7679H15H18.2143C18.954 22.7679 19.5536 22.1683 19.5536 21.4286C19.5536 20.6889 18.954 20.0893 18.2143 20.0893H16.3393V13.9286C16.3393 13.1889 15.7397 12.5893 15 12.5893H12.8571C12.1175 12.5893 11.5179 13.1889 11.5179 13.9286C11.5179 14.6682 12.1175 15.2679 12.8571 15.2679H13.6607V20.0893H11.7857ZM17.1429 8.57143C17.1429 9.75489 16.1835 10.7143 15 10.7143C13.8165 10.7143 12.8571 9.75489 12.8571 8.57143C12.8571 7.38797 13.8165 6.42857 15 6.42857C16.1835 6.42857 17.1429 7.38797 17.1429 8.57143Z" fill="white"/>
</svg>
