<svg width="14" height="14" viewBox="0 0 14 14" fill="none" xmlns="http://www.w3.org/2000/svg">
<g clip-path="url(#clip0_73_11893)">
<path fill-rule="evenodd" clip-rule="evenodd" d="M5.49479 0.12579C5.6326 0.0434684 5.79013 0 5.95066 0C6.10069 0 6.24811 0.03797 6.37926 0.110143C10.3659 1.96234 12.6233 5.80838 12.4839 9.02393C12.4245 10.3754 11.9406 11.6258 11.0032 12.5393C10.0658 13.4528 8.71901 13.9869 7.01386 13.9902C6.32892 14.0324 5.64236 13.9383 4.99396 13.7132C4.34042 13.4864 3.73884 13.1312 3.22464 12.6684C2.71044 12.2056 2.29399 11.6446 1.99982 11.0185C1.70564 10.3924 1.53967 9.71374 1.51168 9.02251L1.51138 9.01505C1.49096 8.21521 1.69009 7.42507 2.08705 6.73039C2.484 6.03571 3.06368 5.46305 3.76313 5.07458C3.88604 5.00632 4.032 4.99295 4.16526 5.03776C4.29852 5.08257 4.40675 5.18141 4.46345 5.31006C4.70718 5.86315 5.04852 6.36628 5.46984 6.79597C5.96422 6.15101 6.19167 5.31769 6.18495 4.40211C6.17694 3.31148 5.83434 2.14324 5.26087 1.14849C5.16699 0.991797 5.1327 0.806401 5.16448 0.626323C5.19677 0.443333 5.29505 0.278536 5.44069 0.163139C5.45789 0.149516 5.47596 0.13704 5.49479 0.12579Z" fill="#F9FAFB"/>
</g>
<defs>
<clipPath id="clip0_73_11893">
<rect width="14" height="14" fill="white"/>
</clipPath>
</defs>
</svg>
