<svg width="30" height="30" viewBox="0 0 30 30" fill="none" xmlns="http://www.w3.org/2000/svg">
<g clip-path="url(#clip0_91_11595)">
<path d="M15 30C23.2843 30 30 23.2843 30 15C30 6.71573 23.2843 0 15 0C6.71573 0 0 6.71573 0 15C0 23.2843 6.71573 30 15 30Z" fill="#D80027"/>
<path d="M16.5487 11.3477C16.2078 12.7656 15.6021 12.4952 15.3048 13.7318C13.5539 13.3108 12.4755 11.5501 12.8965 9.79898C13.3173 8.04803 15.0782 6.96967 16.8293 7.39066C16.2347 9.86373 16.8536 10.0796 16.5487 11.3477Z" fill="#F0F0F0"/>
<path d="M12.0051 12.3984C13.2482 13.1607 12.8039 13.6533 13.888 14.3182C12.9465 15.8534 10.9388 16.3348 9.4035 15.3933C7.86829 14.4519 7.38682 12.4441 8.32831 10.9089C10.4966 12.2385 10.893 11.7166 12.0051 12.3984Z" fill="#F0F0F0"/>
<path d="M11.6002 17.0445C12.7094 16.0977 13.0404 16.6725 14.0077 15.8469C15.177 17.2167 15.0143 19.2749 13.6446 20.4442C12.2748 21.6134 10.2165 21.4506 9.04749 20.081C10.9819 18.4296 10.608 17.8912 11.6002 17.0445Z" fill="#F0F0F0"/>
<path d="M15.8938 18.8651C15.3359 17.5177 15.9849 17.3803 15.4987 16.2053C17.1627 15.5167 19.07 16.3073 19.7587 17.9713C20.4474 19.6354 19.6566 21.5426 17.9926 22.2313C17.0201 19.8812 16.3926 20.0704 15.8938 18.8651Z" fill="#F0F0F0"/>
<path d="M18.9521 15.3443C17.4982 15.4584 17.568 14.7986 16.3003 14.8981C16.1595 13.1029 17.501 11.5331 19.2963 11.3921C21.0916 11.2516 22.6614 12.5929 22.8021 14.3883C20.2663 14.5871 20.2523 15.2424 18.9521 15.3443Z" fill="#F0F0F0"/>
</g>
<defs>
<clipPath id="clip0_91_11595">
<rect width="30" height="30" fill="white"/>
</clipPath>
</defs>
</svg>
