<svg width="14" height="14" viewBox="0 0 14 14" fill="none" xmlns="http://www.w3.org/2000/svg">
<g clip-path="url(#clip0_73_11900)">
<path fill-rule="evenodd" clip-rule="evenodd" d="M12.3679 0.0112256C12.7691 0.0230708 13.1982 0.141843 13.5282 0.475758C14.0353 0.984785 14.0465 1.70279 13.9304 2.29346C13.8088 2.91282 13.5094 3.61454 13.1007 4.34357C12.8829 4.73204 12.6277 5.13957 12.3391 5.56019C12.4957 6.1472 12.5545 6.75821 12.5111 7.36846C12.4456 8.28783 12.1502 9.176 11.6519 9.95138C11.1536 10.7268 10.4684 11.3645 9.65932 11.8059C8.44171 12.4703 6.99059 12.6477 5.64826 12.3061C5.20262 12.6141 4.77049 12.8845 4.35912 13.1129C3.62615 13.5198 2.92029 13.8151 2.29766 13.933C1.70369 14.0456 0.984565 14.0295 0.477376 13.5223C0.143562 13.1885 0.0231102 12.7544 0.0104985 12.3459C-0.00196274 11.9424 0.0869207 11.5092 0.230915 11.0769C0.501316 10.2652 1.01188 9.32275 1.69191 8.33518C1.5478 7.7693 1.49358 7.17969 1.53563 6.58797C1.62948 5.26737 2.19655 4.02494 3.13271 3.08878C4.06887 2.15262 5.3113 1.58555 6.63191 1.4917C7.2308 1.44914 7.82755 1.5052 8.39971 1.65327C9.3849 0.999051 10.3246 0.49412 11.1298 0.227021C11.5491 0.0879447 11.9722 -0.000456673 12.3679 0.0112256ZM10.0525 2.38824C10.1439 2.4486 10.2337 2.51182 10.3218 2.57786L10.3247 2.58006L10.776 2.92368C10.0166 4.20856 8.80137 5.75276 7.28528 7.28668C5.79533 8.79416 4.27826 9.99478 3.00363 10.7515L2.6327 10.2919C2.62898 10.2873 2.62535 10.2826 2.6218 10.2779C2.54909 10.1809 2.47981 10.0819 2.41401 9.98091C2.05611 10.577 1.80134 11.1088 1.65403 11.551C1.54162 11.8884 1.50473 12.1358 1.50978 12.2996C1.51287 12.3995 1.52994 12.4445 1.538 12.46C1.56086 12.4722 1.67985 12.5234 2.01851 12.4593C2.41978 12.3832 2.96669 12.1702 3.63104 11.8014C3.99521 11.5992 4.38308 11.3568 4.78752 11.0776C5.8761 10.3049 7.04018 9.31287 8.17432 8.16538C9.30913 7.01722 10.2974 5.84759 11.07 4.75841C11.3477 4.35635 11.5897 3.97136 11.7922 3.61012C12.1641 2.94665 12.3803 2.40283 12.4586 2.00431C12.5241 1.67089 12.4746 1.55478 12.463 1.53307C12.4483 1.52627 12.4083 1.51307 12.3236 1.51057C12.1685 1.50599 11.9309 1.54166 11.6021 1.65073C11.1671 1.79502 10.6429 2.04371 10.0525 2.38824Z" fill="#F9FAFB"/>
</g>
<defs>
<clipPath id="clip0_73_11900">
<rect width="14" height="14" fill="white"/>
</clipPath>
</defs>
</svg>
