<svg width="14" height="14" viewBox="0 0 14 14" fill="none" xmlns="http://www.w3.org/2000/svg">
<g clip-path="url(#clip0_73_11908)">
<path fill-rule="evenodd" clip-rule="evenodd" d="M1.06352 0.256099C1.15188 0.0979709 1.31886 0 1.5 0H4.5C4.67363 0 4.83483 0.0900775 4.92583 0.237951L7.79045 4.89296L11.6757 0.267623C11.9422 -0.0495422 12.4152 -0.0906803 12.7324 0.175739C13.0496 0.442158 13.0907 0.915246 12.8243 1.23241L8.61877 6.23899L12.9258 13.238C13.0208 13.3922 13.0248 13.5858 12.9365 13.7439C12.8481 13.902 12.6811 14 12.5 14H9.5C9.32637 14 9.16517 13.9099 9.07417 13.762L6.20957 9.10708L2.3243 13.7324C2.05788 14.0496 1.58479 14.0907 1.26762 13.8243C0.950459 13.5579 0.909321 13.0848 1.17574 12.7676L5.38125 7.76106L1.07417 0.762049C0.979236 0.607778 0.975163 0.414227 1.06352 0.256099Z" fill="#F9FAFB"/>
</g>
<defs>
<clipPath id="clip0_73_11908">
<rect width="14" height="14" fill="white"/>
</clipPath>
</defs>
</svg>
