<svg width="30" height="30" viewBox="0 0 30 30" fill="none" xmlns="http://www.w3.org/2000/svg">
<g clip-path="url(#clip0_91_11572)">
<path d="M15 30C23.2843 30 30 23.2843 30 15C30 6.71573 23.2843 0 15 0C6.71573 0 0 6.71573 0 15C0 23.2843 6.71573 30 15 30Z" fill="#F0F0F0"/>
<path d="M3.10077 5.86769C1.9225 7.40068 1.03405 9.16758 0.516724 11.087H8.32012L3.10077 5.86769Z" fill="#0052B4"/>
<path d="M29.4832 11.087C28.9659 9.16763 28.0774 7.40074 26.8992 5.86775L21.6799 11.087H29.4832Z" fill="#0052B4"/>
<path d="M0.516724 18.9131C1.03411 20.8325 1.92256 22.5994 3.10077 24.1324L8.31995 18.9131H0.516724Z" fill="#0052B4"/>
<path d="M24.1323 3.10084C22.5993 1.92258 20.8324 1.03412 18.913 0.516739V8.32008L24.1323 3.10084Z" fill="#0052B4"/>
<path d="M5.86768 26.8992C7.40066 28.0774 9.16756 28.9659 11.087 29.4833V21.68L5.86768 26.8992Z" fill="#0052B4"/>
<path d="M11.0869 0.516739C9.1675 1.03412 7.40061 1.92258 5.86768 3.10078L11.0869 8.32002V0.516739Z" fill="#0052B4"/>
<path d="M18.9131 29.4833C20.8325 28.9659 22.5994 28.0774 24.1323 26.8992L18.9131 21.68V29.4833Z" fill="#0052B4"/>
<path d="M21.6799 18.9131L26.8992 24.1324C28.0774 22.5995 28.9659 20.8325 29.4832 18.9131H21.6799Z" fill="#0052B4"/>
<path d="M29.873 13.0435H16.9566H16.9566V0.126973C16.3161 0.0435938 15.6631 0 15 0C14.3368 0 13.6839 0.0435938 13.0435 0.126973V13.0434V13.0434H0.126973C0.0435938 13.6839 0 14.3369 0 15C0 15.6632 0.0435938 16.3161 0.126973 16.9565H13.0434H13.0434V29.873C13.6839 29.9564 14.3368 30 15 30C15.6631 30 16.3161 29.9565 16.9565 29.873V16.9566V16.9566H29.873C29.9564 16.3161 30 15.6632 30 15C30 14.3369 29.9564 13.6839 29.873 13.0435Z" fill="#D80027"/>
<path d="M18.9131 18.9131L25.6066 25.6066C25.9145 25.2989 26.2081 24.9772 26.4883 24.6436L20.7577 18.9131H18.9131V18.9131Z" fill="#D80027"/>
<path d="M11.0869 18.9131H11.0868L4.39331 25.6066C4.70104 25.9144 5.02278 26.2081 5.3563 26.4883L11.0869 20.7576V18.9131Z" fill="#D80027"/>
<path d="M11.087 11.0871V11.0869L4.39344 4.39336C4.08559 4.70109 3.79191 5.02283 3.51172 5.35635L9.24236 11.087H11.087V11.0871Z" fill="#D80027"/>
<path d="M18.9131 11.087L25.6067 4.39342C25.2989 4.08557 24.9772 3.79189 24.6437 3.51176L18.9131 9.2424V11.087Z" fill="#D80027"/>
</g>
<defs>
<clipPath id="clip0_91_11572">
<rect width="30" height="30" fill="white"/>
</clipPath>
</defs>
</svg>
