<svg width="14" height="11" viewBox="0 0 14 11" fill="none" xmlns="http://www.w3.org/2000/svg">
<path d="M10.2989 3.48867C10.2989 3.48867 9.17241 7.0289 9.09196 7.35074C9.09196 7.0289 8.2069 0.672577 8.2069 0.672577C6.27586 0.672577 5.22989 2.04039 4.74713 3.48867C4.74713 3.48867 3.43604 6.2462 3.35558 6.56804C3.27512 6.32666 3.05747 3.56913 3.05747 3.56913C2.89655 1.79901 1.28736 0.672577 0 0.672577L1.6092 10.3277C3.62069 10.3277 4.74713 8.95993 5.31034 7.51166C5.31034 7.51166 6.51724 4.37373 6.5977 4.21281C6.5977 4.37373 7.48276 10.3277 7.48276 10.3277C9.49425 10.3277 10.6207 9.04039 11.1839 7.67258L14 0.672577C11.908 0.672577 10.8621 2.04039 10.2989 3.48867Z" fill="#F9FAFB"/>
</svg>
